<?xml version="1.0" standalone="no"?>
<!DOCTYPE svg PUBLIC "-//W3C//DTD SVG 20010904//EN"
 "http://www.w3.org/TR/2001/REC-SVG-20010904/DTD/svg10.dtd">
<svg version="1.0" xmlns="http://www.w3.org/2000/svg"
 width="1676.000000pt" height="1678.000000pt" viewBox="0 0 1676.000000 1678.000000"
 preserveAspectRatio="xMidYMid meet">

<g transform="translate(0.000000,1678.000000) scale(0.100000,-0.100000)"
fill="#000000" stroke="none">
<path d="M0 8390 l0 -8390 8380 0 8380 0 0 8390 0 8390 -8380 0 -8380 0 0
-8390z m9110 7135 c1566 -134 2991 -750 4140 -1790 1128 -1021 1902 -2387
2189 -3865 100 -512 138 -964 128 -1500 -6 -311 -12 -400 -42 -675 -161 -1460
-812 -2879 -1821 -3969 -1065 -1151 -2452 -1904 -3987 -2165 -398 -68 -730
-95 -1172 -95 -378 0 -613 15 -942 60 -2015 272 -3802 1395 -4928 3099 -499
755 -846 1599 -1025 2492 -267 1331 -143 2723 355 3983 794 2010 2488 3557
4558 4164 547 161 1061 245 1697 280 137 8 683 -5 850 -19z"/>
<path d="M8155 15144 c-22 -2 -103 -8 -180 -14 -280 -22 -666 -83 -952 -150
-986 -233 -1895 -684 -2681 -1328 -764 -625 -1405 -1447 -1812 -2320 -179
-387 -318 -775 -427 -1202 -135 -524 -214 -1231 -199 -1769 26 -914 206 -1729
564 -2546 l57 -130 5 2362 c3 1299 8 2365 12 2369 8 7 138 -27 278 -73 41 -14
89 -28 105 -33 17 -5 62 -18 100 -30 39 -12 102 -30 140 -41 39 -11 102 -29
140 -41 39 -11 84 -23 100 -28 17 -4 68 -20 115 -35 82 -26 104 -32 180 -54
123 -34 381 -110 388 -115 4 -2 41 -14 82 -25 41 -11 107 -29 145 -41 39 -12
103 -30 143 -41 40 -11 92 -26 115 -33 67 -22 319 -97 392 -117 22 -6 67 -19
100 -29 33 -10 80 -23 105 -30 25 -7 63 -18 85 -26 41 -13 149 -45 220 -66 22
-6 59 -17 82 -24 23 -8 75 -22 115 -33 40 -11 105 -30 143 -41 79 -25 155 -48
200 -60 17 -5 109 -32 205 -60 96 -28 189 -56 205 -60 62 -19 132 -39 200 -60
39 -12 103 -30 143 -41 40 -11 92 -25 115 -33 23 -7 62 -19 87 -26 25 -6 63
-18 85 -25 59 -20 329 -99 455 -134 19 -5 73 -21 120 -36 47 -14 99 -30 115
-35 59 -16 180 -51 210 -60 28 -8 62 -18 138 -39 17 -5 70 -21 117 -35 76 -24
149 -46 260 -77 19 -6 50 -14 68 -20 17 -5 48 -13 67 -19 19 -5 52 -15 73 -21
20 -5 51 -14 67 -19 17 -4 68 -20 115 -35 86 -27 99 -31 205 -59 33 -9 71 -20
85 -25 14 -5 44 -14 68 -21 l42 -13 1 -406 c1 -223 5 -1304 8 -2401 l6 -1995
55 -18 c73 -25 294 -27 358 -4 23 9 42 14 42 12 0 -4 92 34 160 68 25 12 88
65 141 117 108 107 163 195 204 326 l25 80 -2 2449 -3 2449 -75 23 c-227 68
-388 116 -415 123 -16 5 -57 16 -90 25 -33 10 -81 24 -108 31 -26 7 -51 16
-57 19 -5 3 -43 15 -85 26 -42 11 -95 25 -118 33 -23 7 -62 19 -87 26 -25 7
-72 20 -105 30 -33 10 -80 23 -105 30 -25 7 -63 18 -85 26 -41 13 -149 45
-220 66 -22 6 -59 17 -82 24 -23 8 -75 22 -115 33 -40 11 -104 30 -143 41 -79
25 -155 48 -200 60 -16 5 -109 32 -205 60 -96 28 -188 56 -205 60 -16 5 -52
16 -80 24 -140 41 -404 119 -430 126 -45 12 -121 35 -200 60 -38 11 -103 30
-143 41 -40 11 -92 25 -115 33 -23 7 -62 19 -87 26 -88 25 -175 51 -205 61
-16 6 -63 19 -103 30 -40 11 -92 25 -115 33 -23 7 -60 18 -82 24 -102 28 -192
55 -215 63 -14 5 -34 11 -45 14 -11 2 -58 16 -105 30 -47 15 -118 35 -158 46
-40 11 -92 25 -115 33 -23 7 -60 18 -82 24 -22 7 -69 21 -105 32 -36 11 -76
22 -88 25 -12 2 -26 7 -32 10 -5 3 -43 15 -85 26 -42 11 -95 25 -118 33 -23 7
-62 19 -87 26 -58 16 -153 44 -210 61 -25 8 -47 14 -50 15 -5 0 -123 35 -185
55 -44 13 -199 57 -284 80 -41 11 -99 28 -130 38 -31 10 -74 23 -96 29 -22 6
-73 21 -112 33 l-73 22 0 158 c0 87 4 160 8 163 9 5 47 -3 147 -34 39 -12 95
-28 125 -36 91 -24 193 -55 230 -70 19 -7 46 -15 60 -16 24 -3 25 0 31 62 4
36 7 136 8 223 l1 159 33 -7 c39 -9 149 -42 200 -61 20 -7 37 -11 37 -9 0 3
10 1 21 -6 18 -9 202 -65 397 -120 68 -19 100 -29 182 -54 83 -26 108 -34 180
-54 123 -34 381 -110 388 -115 4 -2 41 -14 82 -25 41 -11 107 -29 145 -41 39
-12 103 -30 143 -41 40 -11 92 -26 115 -33 67 -22 319 -97 392 -117 22 -6 67
-19 100 -29 33 -10 80 -23 105 -30 25 -7 63 -18 85 -26 45 -14 160 -49 220
-65 22 -6 51 -15 65 -19 14 -4 59 -17 100 -29 87 -25 97 -28 255 -76 66 -20
138 -41 160 -47 22 -6 60 -17 85 -25 25 -8 70 -21 100 -29 54 -14 157 -45 235
-69 41 -13 55 -17 180 -54 81 -24 235 -69 283 -82 64 -18 99 -28 182 -54 47
-15 99 -30 115 -35 34 -9 166 -47 210 -60 17 -5 46 -13 65 -18 19 -6 89 -27
155 -47 66 -20 152 -45 190 -56 66 -19 85 -24 168 -48 33 -10 53 -16 172 -50
39 -11 84 -24 100 -30 17 -6 64 -20 105 -32 41 -12 86 -25 100 -29 14 -4 43
-13 65 -19 66 -18 275 -80 360 -106 22 -7 58 -17 80 -23 22 -6 72 -20 110 -32
39 -11 88 -25 110 -31 22 -6 51 -15 65 -19 14 -4 44 -13 68 -20 l42 -13 0
-2397 0 -2398 28 -10 c77 -30 116 -36 224 -35 225 0 407 80 558 247 62 69 152
206 134 206 -4 0 -2 6 3 13 6 6 18 35 28 62 32 90 38 775 29 2985 l-9 2004
-145 43 c-80 23 -215 63 -300 88 -85 26 -188 55 -228 66 -40 11 -92 26 -115
33 -67 22 -319 97 -392 117 -22 6 -67 19 -100 29 -33 10 -80 23 -105 30 -25 7
-63 18 -85 26 -41 13 -149 45 -220 66 -22 6 -59 17 -82 24 -23 8 -75 22 -115
33 -40 11 -111 32 -158 46 -84 26 -120 36 -182 54 -41 11 -189 54 -283 82 -38
11 -87 27 -107 35 -21 7 -38 12 -38 9 0 -2 -12 0 -27 6 -16 6 -41 15 -58 19
-16 5 -109 32 -205 60 -96 28 -188 55 -205 60 -32 9 -43 12 -305 90 -96 28
-188 55 -205 60 -95 26 -199 57 -360 105 -66 20 -145 43 -175 51 -82 22 -190
54 -232 70 -21 8 -38 12 -38 9 0 -2 -12 0 -27 6 -34 14 -134 44 -231 70 -40
11 -92 25 -115 33 -23 7 -62 19 -87 26 -25 7 -72 21 -106 31 -33 11 -69 21
-80 24 -10 2 -32 9 -49 15 -26 9 -155 47 -240 70 -40 11 -173 49 -210 60 -78
24 -149 44 -395 115 -146 41 -283 82 -305 89 -22 7 -59 19 -82 25 l-43 12 0
164 c0 91 4 165 9 165 5 0 31 -7 57 -15 43 -13 170 -50 259 -75 17 -5 84 -25
150 -45 66 -20 135 -40 153 -45 l32 -8 0 209 c0 115 3 209 8 209 4 0 23 -5 42
-11 19 -5 68 -19 108 -30 41 -11 106 -30 145 -43 82 -28 222 -69 222 -66 0 1
14 -4 30 -10 17 -7 44 -16 60 -20 17 -5 109 -32 205 -60 96 -28 189 -55 206
-60 18 -4 36 -10 41 -13 5 -3 20 -8 34 -11 13 -3 62 -17 109 -32 47 -14 99
-29 115 -34 34 -9 125 -35 200 -57 28 -8 64 -18 80 -23 17 -4 68 -20 115 -35
47 -15 101 -31 120 -36 45 -13 75 -22 185 -53 188 -55 231 -68 268 -82 20 -7
37 -12 37 -9 0 2 12 0 28 -6 15 -6 41 -15 57 -19 17 -5 109 -32 205 -60 96
-28 189 -55 205 -60 17 -4 42 -13 58 -19 15 -6 27 -8 27 -6 0 2 12 0 28 -6 33
-14 133 -44 230 -70 40 -11 92 -25 115 -33 23 -7 60 -18 82 -24 45 -13 197
-59 235 -72 14 -4 43 -13 65 -19 22 -5 87 -24 145 -41 58 -17 137 -40 175 -51
39 -11 88 -26 110 -33 22 -7 60 -19 85 -26 25 -7 56 -16 70 -20 28 -9 157 -46
210 -60 52 -14 169 -49 215 -64 22 -8 58 -18 80 -25 22 -6 72 -20 110 -31 39
-12 88 -26 110 -32 22 -6 67 -19 100 -29 70 -22 206 -62 220 -65 6 -1 42 -11
80 -23 39 -12 88 -27 110 -33 22 -6 67 -19 100 -29 33 -11 101 -31 150 -45
115 -33 138 -40 205 -59 30 -9 69 -20 85 -25 50 -14 206 -59 275 -80 64 -19
187 -55 305 -90 33 -10 81 -24 108 -31 l47 -13 0 -2398 0 -2398 27 -11 c100
-38 231 -47 353 -25 166 30 264 81 381 196 112 110 170 195 201 294 38 124 37
44 38 2577 l0 2436 -42 15 c-24 9 -61 20 -83 27 -22 6 -71 20 -110 31 -38 12
-88 26 -110 32 -22 6 -51 14 -65 19 -44 14 -175 51 -175 49 0 -1 -18 5 -40 13
-37 14 -133 42 -230 69 -22 5 -51 14 -65 19 -14 4 -74 22 -135 39 -60 17 -135
40 -166 50 -31 10 -89 28 -130 39 -41 11 -105 29 -144 41 -38 12 -103 30 -143
41 -40 11 -92 26 -115 33 -52 17 -187 57 -287 86 -41 12 -86 26 -100 30 -14 4
-61 18 -105 30 -44 12 -93 27 -110 34 -16 6 -34 11 -40 11 -9 1 -129 36 -185
54 -14 5 -45 14 -70 21 -25 7 -72 20 -105 30 -33 10 -78 23 -100 29 -42 11
-193 57 -235 71 -14 4 -45 13 -70 20 -25 7 -64 19 -87 26 -23 8 -75 22 -115
33 -40 11 -111 31 -158 46 -47 14 -94 28 -105 30 -11 3 -31 9 -45 14 -23 8
-126 38 -210 61 -19 6 -64 19 -100 29 -148 45 -216 65 -227 67 -7 1 -41 11
-75 22 -35 11 -83 25 -108 32 -25 7 -64 19 -87 26 -23 8 -75 22 -115 33 -40
11 -104 30 -143 41 -80 25 -157 48 -200 60 -59 16 -287 82 -435 127 -160 47
-205 61 -250 73 -25 7 -64 19 -87 26 -23 8 -75 22 -115 33 -40 11 -111 31
-158 46 -47 14 -118 35 -158 46 -40 10 -92 26 -115 33 -23 8 -77 23 -119 33
l-78 18 0 168 c0 129 3 167 13 167 7 0 48 -11 92 -25 44 -14 98 -30 120 -37
22 -6 59 -17 82 -24 23 -8 75 -22 115 -33 86 -23 167 -47 223 -66 22 -7 60
-19 85 -25 25 -7 64 -19 87 -26 23 -8 75 -22 115 -33 40 -11 105 -29 143 -41
107 -33 168 -50 194 -56 14 -3 28 -7 33 -10 9 -6 299 -91 428 -125 41 -11 78
-23 82 -25 4 -3 16 -7 25 -9 10 -3 88 -25 173 -51 85 -25 169 -49 185 -54 31
-9 117 -33 195 -56 25 -7 59 -18 75 -23 26 -10 154 -47 240 -71 29 -8 145 -41
213 -61 17 -5 47 -13 65 -18 17 -6 70 -22 117 -36 47 -15 101 -31 120 -36 19
-6 50 -14 68 -20 84 -24 102 -29 167 -48 39 -11 108 -32 155 -46 47 -15 100
-31 118 -36 65 -18 108 -30 137 -39 17 -5 62 -18 100 -29 39 -11 124 -36 190
-56 137 -41 166 -50 215 -64 19 -5 69 -20 110 -31 41 -12 89 -25 105 -30 17
-5 68 -20 115 -34 47 -15 94 -29 105 -31 11 -3 31 -9 45 -14 23 -8 113 -35
215 -63 22 -6 67 -19 100 -29 54 -17 255 -76 280 -83 6 -1 26 -7 45 -13 19 -6
55 -16 80 -23 25 -7 65 -19 90 -27 25 -8 70 -21 100 -29 78 -21 188 -54 233
-70 20 -8 37 -12 37 -9 0 3 17 -1 38 -9 45 -16 150 -48 252 -76 41 -12 86 -25
100 -29 14 -5 45 -14 70 -21 25 -7 65 -19 89 -27 24 -7 46 -11 49 -9 8 8 -137
251 -264 443 -690 1045 -1684 1890 -2817 2397 -668 299 -1321 471 -2097 553
-136 14 -898 27 -1005 17z"/>
<path d="M14480 9034 c0 -1623 -3 -2468 -10 -2524 -40 -322 -269 -641 -560
-781 -107 -52 -185 -77 -290 -94 -99 -17 -289 -20 -340 -5 -19 5 -59 12 -90
15 -30 3 -86 15 -125 26 -38 11 -101 29 -140 40 -38 11 -88 25 -110 31 -22 5
-51 14 -65 19 -41 14 -237 69 -245 69 -4 0 -4 -78 0 -172 11 -268 -15 -406
-112 -603 -88 -178 -275 -365 -468 -467 -115 -61 -320 -108 -469 -108 -74 0
-296 32 -376 54 -165 46 -197 55 -222 65 -16 6 -28 8 -28 6 0 -2 -12 0 -27 6
-48 19 -187 59 -205 59 -17 0 -18 -18 -18 -245 0 -214 -3 -255 -20 -323 -27
-100 -35 -122 -78 -212 -180 -373 -538 -600 -946 -600 -111 0 -343 42 -438 79
-16 6 -28 9 -28 7 0 -3 -24 4 -52 14 -29 10 -87 28 -128 39 -65 18 -131 36
-255 71 -139 40 -174 50 -200 60 -16 5 -118 35 -225 66 -107 30 -217 62 -245
70 -27 8 -57 16 -66 18 -9 3 -37 11 -63 20 -25 9 -78 24 -118 35 -121 33 -411
118 -440 130 -16 6 -28 8 -28 6 0 -3 -17 1 -37 9 -43 16 -151 48 -233 70 -84
22 -230 65 -275 80 -52 18 -166 52 -235 70 -47 13 -159 45 -455 133 -27 8 -63
18 -80 23 -116 32 -376 109 -383 114 -5 3 -19 7 -33 10 -26 6 -87 23 -194 56
-38 12 -103 30 -143 41 -40 11 -92 25 -115 33 -23 7 -62 19 -87 26 -25 7 -63
19 -85 26 -22 7 -71 22 -110 33 -38 11 -117 34 -175 51 -58 17 -121 35 -140
40 -58 16 -172 50 -215 64 -22 8 -60 19 -85 26 -25 7 -72 20 -105 30 -33 10
-80 23 -105 30 -25 7 -56 16 -70 21 -40 13 -164 48 -172 49 -5 0 -25 6 -45 14
-42 15 -150 48 -233 70 -30 8 -86 24 -125 36 -38 12 -104 30 -145 41 -41 11
-78 23 -82 25 -13 8 -312 93 -315 90 -6 -6 172 -295 275 -446 579 -853 1375
-1585 2239 -2061 918 -506 1824 -773 2842 -840 237 -15 827 -6 1041 15 990
102 1879 389 2710 874 974 570 1800 1390 2372 2357 307 520 581 1176 711 1705
156 633 210 1063 211 1680 0 372 -8 516 -50 848 -84 677 -275 1341 -564 1962
-39 85 -73 157 -76 159 -2 2 -4 -1093 -4 -2435z"/>
<path d="M5215 8791 c-3 -2 -29 -5 -57 -7 -29 -1 -66 -5 -83 -9 -71 -13 -115
-23 -140 -29 -5 -1 -35 -11 -65 -21 -30 -11 -58 -20 -62 -21 -5 -1 -10 -3 -13
-4 -3 -1 -8 -3 -12 -4 -20 -4 -172 -82 -200 -103 -18 -13 -33 -22 -33 -19 0 7
-107 -71 -136 -99 -11 -11 -31 -29 -45 -41 -57 -49 -156 -170 -216 -264 -305
-479 -294 -1197 26 -1840 55 -109 158 -285 176 -300 8 -7 15 -17 15 -23 0 -6
8 -20 19 -31 10 -12 36 -46 56 -76 58 -83 137 -172 275 -308 135 -133 133
-132 200 -182 25 -19 50 -39 56 -45 6 -5 22 -17 34 -25 12 -8 28 -20 34 -25 6
-6 43 -30 81 -55 39 -24 72 -47 75 -50 18 -19 294 -157 371 -185 24 -9 69 -24
99 -33 30 -9 57 -19 60 -22 7 -9 262 -69 318 -75 243 -25 420 -22 552 10 14 3
39 8 55 11 31 5 88 21 115 31 8 4 17 7 20 8 32 8 88 30 99 39 8 6 17 10 20 9
9 -3 74 29 94 45 9 8 17 12 17 7 0 -4 15 4 34 19 19 14 38 26 42 26 17 0 125
90 210 175 261 261 404 636 404 1063 0 228 -38 444 -121 696 -46 137 -143 353
-204 451 -14 22 -28 47 -32 55 -3 8 -29 48 -57 89 -28 40 -55 81 -61 90 -45
72 -228 285 -330 382 -63 60 -77 73 -144 129 -23 19 -54 45 -69 58 -15 12 -52
39 -82 60 -30 20 -57 39 -60 42 -7 7 -124 81 -185 116 -47 27 -121 64 -192 95
-18 8 -33 17 -33 21 0 5 -8 8 -17 8 -10 0 -30 6 -44 14 -14 7 -39 16 -55 20
-16 4 -42 14 -59 21 -35 16 -239 70 -305 80 -49 8 -67 11 -150 20 -66 8 -289
13 -295 6z m445 -134 c492 -96 933 -351 1298 -751 316 -345 531 -768 614
-1206 32 -166 32 -509 1 -653 -31 -142 -74 -267 -91 -267 -12 0 -291 72 -329
85 -9 3 -13 -11 -13 -49 l0 -53 123 -32 c67 -18 136 -37 154 -42 l32 -10 -45
-76 c-189 -320 -518 -538 -900 -597 -200 -31 -490 -10 -709 52 -277 78 -574
233 -815 426 -126 101 -353 336 -451 466 -307 411 -470 846 -486 1295 -26 754
406 1313 1097 1421 108 17 416 11 520 -9z"/>
<path d="M5305 8263 c-96 -21 -251 -86 -324 -135 -60 -40 -121 -98 -121 -115
0 -8 -7 -16 -15 -19 -8 -4 -15 -17 -15 -30 0 -14 -7 -27 -15 -30 -8 -4 -15
-14 -15 -23 0 -9 -7 -27 -16 -39 -9 -13 -14 -33 -10 -44 3 -15 -4 -32 -24 -55
-16 -18 -32 -50 -36 -70 -4 -21 -18 -69 -31 -107 -14 -42 -23 -94 -23 -130 -1
-34 -6 -81 -12 -106 -6 -25 -10 -69 -9 -98 1 -30 -5 -65 -14 -82 -20 -39 -19
-67 3 -74 9 -3 112 -30 227 -61 116 -30 220 -59 233 -65 19 -8 22 -17 22 -64
0 -30 -4 -57 -8 -60 -5 -3 -119 24 -253 59 -134 36 -244 65 -245 65 -1 0 -4
-55 -8 -122 -4 -68 -11 -186 -15 -263 -5 -77 -14 -155 -21 -174 -10 -26 -10
-57 -1 -145 6 -62 11 -140 11 -175 0 -73 13 -101 87 -193 72 -89 134 -144 169
-152 86 -18 154 -22 182 -10 36 15 82 80 126 177 39 85 90 236 83 243 -3 3
-85 27 -183 53 l-179 48 -3 61 -3 61 113 -30 c62 -17 152 -41 201 -54 l87 -24
0 134 c0 169 -13 299 -50 500 -41 226 -53 336 -47 445 6 107 30 183 56 178 18
-4 18 -15 3 -153 -14 -126 0 -239 52 -435 64 -235 68 -262 75 -489 l6 -205 65
-16 c36 -10 84 -23 108 -29 l42 -12 0 -53 c0 -29 -3 -55 -6 -58 -3 -3 -53 7
-112 23 -58 16 -107 27 -107 26 -1 -1 -8 -31 -14 -67 -7 -35 -24 -93 -37 -129
-13 -35 -24 -71 -24 -80 0 -24 31 -50 135 -111 50 -29 97 -59 105 -66 60 -50
211 -98 375 -120 22 -3 67 -12 100 -20 33 -7 76 -14 95 -14 48 0 100 33 100
64 0 29 -18 50 -96 115 -49 39 -63 57 -68 86 -4 21 -5 39 -3 41 6 6 181 -169
229 -228 50 -62 112 -89 215 -96 96 -6 113 3 113 57 0 25 -13 58 -42 106 -41
69 -42 72 -48 185 -3 63 -2 133 2 155 4 22 7 61 8 87 0 55 -14 68 -91 86 -77
19 -139 58 -170 108 l-21 35 -40 -37 c-22 -20 -65 -48 -95 -61 -133 -61 -282
11 -405 193 -21 31 -38 62 -38 69 0 35 26 23 78 -36 142 -160 197 -196 283
-186 58 7 109 38 169 103 53 57 86 107 95 147 6 23 1 34 -34 72 -54 59 -79
111 -62 128 10 10 17 6 34 -16 113 -145 173 -176 253 -126 59 36 77 -10 22
-56 -28 -24 -38 -27 -79 -22 -43 5 -49 3 -78 -27 -63 -65 -51 -158 27 -207 25
-16 59 -29 76 -29 41 0 103 32 156 81 l45 41 63 -68 c88 -96 167 -216 208
-315 18 -46 34 -81 34 -76 0 26 -45 162 -72 215 -33 66 -131 188 -191 238 -29
24 -33 33 -26 52 5 12 14 22 21 22 7 0 59 -23 116 -52 130 -65 227 -151 271
-240 17 -34 31 -68 31 -76 0 -9 3 -13 6 -9 11 11 -27 120 -58 164 -16 24 -52
61 -79 83 -68 53 -224 140 -264 147 -31 5 -33 8 -37 50 -2 28 1 47 8 50 25 9
319 -85 393 -127 l36 -20 -32 28 c-50 43 -99 66 -219 101 -209 62 -182 45
-215 141 -33 98 -39 206 -14 254 19 36 19 34 -9 29 -52 -10 -98 78 -98 190 0
71 17 117 44 117 18 0 18 1 3 28 -27 47 -113 302 -101 302 6 0 54 -11 106 -25
52 -14 98 -25 103 -25 4 0 -8 30 -26 67 l-34 66 -119 33 c-178 48 -649 174
-651 174 -2 0 -3 25 -3 55 0 30 3 55 8 55 6 0 320 -83 367 -97 29 -8 -149 157
-199 185 -34 20 -37 21 -18 4 12 -11 22 -23 22 -27 0 -12 -96 49 -137 89 -24
22 -43 36 -43 30 0 -5 6 -16 13 -24 6 -8 1 -6 -13 3 -14 10 -54 32 -90 50 -54
26 -78 32 -140 34 -41 1 -95 8 -119 17 -41 15 -102 19 -146 9z m449 -777 c41
-17 84 -71 92 -117 6 -28 4 -32 -7 -21 -20 18 -57 15 -69 -7 -27 -51 -1 -141
41 -141 33 0 36 -30 5 -57 -38 -32 -78 -30 -121 9 -59 51 -79 101 -80 190 0
83 17 120 66 145 30 16 33 16 73 -1z"/>
<path d="M6062 8169 l3 -54 118 -31 117 -31 0 52 0 51 -105 27 c-57 15 -112
30 -120 34 -14 5 -16 -3 -13 -48z"/>
<path d="M4600 7933 c0 -6 -9 -9 -20 -6 -33 9 -199 -37 -221 -61 -15 -16 -22
-18 -28 -8 -9 15 -26 10 -98 -26 -49 -24 -54 -30 -82 -101 -41 -103 -51 -173
-55 -369 -6 -266 33 -496 119 -713 35 -86 199 -436 210 -447 10 -10 45 32 45
54 0 68 -85 219 -173 308 -26 26 -46 51 -43 53 8 9 154 -106 192 -152 l35 -40
-6 45 c-10 84 -10 264 2 405 10 125 26 211 78 425 9 36 29 125 45 199 16 74
43 166 59 205 16 39 33 89 37 111 3 22 15 57 25 77 11 21 19 42 19 47 0 6 -30
9 -70 8 -45 -1 -70 -6 -70 -14z"/>
<path d="M6510 7512 c0 -9 9 -32 21 -51 24 -39 80 -185 83 -217 1 -12 10 -37
19 -56 22 -47 47 -168 47 -230 0 -32 -6 -59 -19 -76 -47 -68 -27 -238 32 -269
49 -25 59 -12 56 65 -2 40 3 79 11 97 17 41 18 218 1 239 -7 9 -11 22 -8 30 9
24 -38 188 -77 264 -34 67 -89 157 -118 193 -21 25 -48 31 -48 11z"/>
<path d="M6832 7420 l3 -53 123 -32 122 -32 0 51 0 52 -102 27 c-57 15 -113
30 -126 33 -22 6 -23 5 -20 -46z"/>
<path d="M6557 7154 c-12 -12 -8 -109 5 -122 22 -22 28 -13 28 41 0 51 -18 96
-33 81z"/>
<path d="M6572 6237 l-42 -43 0 -206 c0 -210 3 -232 41 -289 10 -14 21 -50 25
-80 14 -106 32 -128 137 -167 62 -24 127 -28 158 -12 25 14 25 71 -1 129 -11
24 -20 53 -20 66 0 12 -18 55 -40 95 -22 40 -38 75 -35 78 3 3 1 10 -5 17 -15
18 -90 306 -90 346 0 26 -9 45 -34 72 -18 20 -38 37 -43 37 -5 0 -28 -19 -51
-43z"/>
</g>
</svg>
