<?xml version="1.0" encoding="UTF-8" standalone="no"?>
<!DOCTYPE svg PUBLIC "-//W3C//DTD SVG 1.1//EN" "http://www.w3.org/Graphics/SVG/1.1/DTD/svg11.dtd">
<svg width="100%" height="100%" viewBox="0 0 1407 1409" version="1.1" xmlns="http://www.w3.org/2000/svg" xmlns:xlink="http://www.w3.org/1999/xlink" xml:space="preserve" xmlns:serif="http://www.serif.com/" style="fill-rule:evenodd;clip-rule:evenodd;stroke-linecap:round;stroke-linejoin:round;stroke-miterlimit:1.5;">
    <g transform="matrix(1,0,0,1,-78.3456,-38.3062)">
        <g id="Artboard1" transform="matrix(1,0,0,1.24183,-1193.22,-441.974)">
            <rect x="1193.22" y="355.907" width="1566.81" height="1509.8" style="fill:none;"/>
            <g transform="matrix(-0.993191,-0.0124932,0.0155439,-0.801301,1974.75,954.05)">
                <circle cx="0" cy="0" r="687.995" style="fill:rgb(86,23,65);stroke:rgb(255,192,0);stroke-width:39.81px;"/>
            </g>
            <g id="whiisker_lower" transform="matrix(1,0,0,0.805266,0.2189,70.0375)">
                <path d="M2270.47,1188.59C2274.44,1188.5 2285.13,1195.63 2287.34,1197.28C2297.9,1205.15 2308.31,1213.24 2318.52,1221.56C2342.14,1240.8 2361.28,1269.98 2371.02,1298.63C2372.64,1303.4 2380.8,1333.57 2381.21,1335.25C2382.32,1339.83 2386.45,1353.14 2383.97,1349.13C2378.98,1341.03 2381.19,1342.76 2378.75,1338.96C2378.49,1338.55 2378.39,1337.94 2378.02,1337.14C2374.94,1330.43 2372.09,1323.62 2369.16,1316.84C2361.37,1298.84 2354.25,1284.41 2341.67,1269.09C2320.79,1243.66 2298.79,1221.4 2271.9,1202.53C2269.84,1201.08 2267.2,1199.99 2266.03,1197.75C2264.63,1195.09 2266.71,1188.67 2270.47,1188.59Z" style="fill:rgb(255,192,0);"/>
            </g>
            <g id="foot_front" transform="matrix(1,0,0,0.805266,0.2189,70.0375)">
                <path d="M2238.97,1267.5C2243.71,1259.95 2249.39,1253.03 2254.91,1246.04C2260.36,1239.12 2265.77,1232.13 2271.86,1225.77C2273.57,1223.99 2277.62,1224.55 2279.36,1225.61C2284.82,1228.95 2288.58,1233.27 2293.74,1237.05C2296.57,1239.12 2302.01,1244.54 2303.09,1248.27C2304.39,1252.73 2303.7,1260.9 2304.12,1265.14C2304.85,1272.39 2305.83,1279.67 2307.61,1286.74C2311.47,1302.06 2316.78,1316.99 2321.03,1332.21C2324.87,1345.92 2328.23,1360.69 2333.8,1373.85C2335.12,1376.97 2338.24,1379.13 2339.46,1382.3C2339.58,1382.61 2336.65,1387.21 2336.88,1387.64C2338.76,1391.23 2342.23,1393.76 2344.49,1397.13C2348.68,1403.38 2350.88,1410.79 2354.84,1417.19C2357.7,1421.83 2364.38,1428.29 2366.32,1433.58C2369.64,1442.61 2364.95,1449.4 2370.49,1458.41C2371.85,1460.63 2374.63,1461.79 2375.88,1464.07C2376.88,1465.88 2376.3,1468.23 2376.98,1470.18C2377.75,1472.44 2379.57,1474.27 2380.18,1476.58C2381.24,1480.57 2380.49,1484.85 2381.07,1488.95C2382.12,1496.22 2385.07,1501.18 2381.59,1507.33C2379.22,1511.52 2372.13,1515.91 2369.16,1517.76C2350.71,1529.23 2327.99,1526.57 2307.11,1524.85C2302.71,1524.49 2298.45,1523.09 2294.18,1521.96C2290.18,1520.9 2277.23,1516.94 2273.52,1514.32C2272.28,1513.44 2272.5,1508.23 2272.09,1507.28C2270.84,1504.4 2268.26,1502.15 2267.37,1499.14C2264.84,1490.6 2264.5,1481.56 2262.82,1472.81C2262.26,1469.89 2261.27,1460.16 2260.27,1457.58C2257.68,1450.88 2249.54,1445.83 2246.41,1439.24C2245.16,1436.6 2245.56,1433.39 2244.37,1430.72C2241.62,1424.53 2238.43,1426.08 2237.89,1419.36C2236.92,1407.34 2237.36,1395.25 2237.51,1383.19C2237.93,1347.87 2239.24,1312.56 2239.61,1277.24C2239.64,1274.88 2237.39,1270.02 2238.97,1267.5Z" style="fill:rgb(255,192,0);"/>
            </g>
            <g id="body" transform="matrix(1,0,0,0.805266,0.2189,70.0375)">
                <path d="M1573.26,793.46C1569.77,805.872 1566.77,804.494 1562.73,816.843C1553.41,845.304 1556.65,846.022 1547.95,874.759C1547.36,876.699 1533.61,910.313 1533,912.243C1523.31,942.892 1521.83,975.639 1514.53,1006.78C1511.53,1019.57 1506.29,1031.74 1503.02,1044.46C1498.8,1060.9 1498.82,1074.27 1495.45,1090.85C1488.99,1122.73 1478.56,1154.93 1476.3,1187.66C1475.18,1203.8 1475.67,1220.02 1474.48,1236.15C1473.09,1255.14 1467.7,1273.77 1468.63,1292.95C1469.35,1307.62 1471.1,1322.21 1471.93,1336.87C1472.44,1345.75 1471.82,1354.69 1472.65,1363.56C1473.03,1367.69 1474.57,1371.64 1475.54,1375.68C1475.96,1377.44 1477.26,1380.12 1475.64,1381.92C1473.55,1384.24 1467.81,1377.99 1467.47,1377.69C1464.18,1374.91 1460.88,1372.15 1457.61,1369.35C1451.73,1364.31 1446.42,1358.54 1440.03,1354.17C1438.04,1352.82 1435.18,1353.55 1433,1352.55C1420.47,1346.83 1408.42,1340.1 1396.03,1334.07C1394.94,1333.54 1390.47,1332.06 1389.24,1333.13C1383.77,1337.9 1397.19,1342.29 1398.16,1342.91C1417.14,1355.09 1421.31,1359.55 1438.06,1378.01C1452.57,1394.01 1461.86,1413.69 1469.54,1433.65C1472.58,1441.53 1474.6,1451.04 1469.83,1458.76C1467.63,1462.32 1460.85,1470.25 1456.17,1473.65C1455.61,1474.06 1454.47,1473.83 1454.11,1473.23C1439.2,1448.11 1424.99,1422.58 1410.73,1397.08C1387.18,1354.96 1366.13,1311.38 1352.53,1264.96C1328.31,1182.26 1325.08,1095.09 1332.78,1009.72C1334.04,995.77 1335.8,981.84 1338.41,968.078C1342.03,948.98 1347.5,939.948 1353.83,921.778C1356.81,913.193 1357.89,901.359 1365.49,894.878C1377.04,885.026 1402.88,863.055 1418.42,860.127C1419.61,859.903 1420.82,860.372 1420.96,861.789C1421.08,863.017 1419.48,865.957 1420.61,865.475C1427.44,862.577 1428.19,853.851 1434.09,849.913C1446.65,841.526 1456.09,837.369 1469.36,830.237C1488.88,819.742 1488.49,818.918 1509.81,812.997C1511.62,812.494 1518.96,813.293 1519.56,809.119C1519.72,808.003 1517.38,801.566 1519.79,801.217C1520.85,801.062 1531.99,802.474 1533.07,802.178C1541.05,799.989 1548.35,795.212 1555.91,791.912C1557.7,791.128 1576.48,782.015 1573.26,793.46Z" style="fill:rgb(255,192,0);"/>
            </g>
            <g id="ear_front" transform="matrix(1,0,0,0.805266,0.2189,70.0375)">
                <path d="M2294.78,980.99C2297.61,960.642 2292.35,938.293 2287.78,918.813C2285.73,910.034 2283.88,901.152 2280.77,892.689C2278.23,885.789 2271.01,881.178 2268.79,874.171C2268.11,872.007 2273.74,871.236 2273.25,869.02C2272.45,865.401 2262.51,847.695 2261.24,844.976C2253.78,829.023 2256.49,828.106 2249.39,812.062C2243.72,799.24 2229.33,788.824 2231.38,773.079C2231.89,769.167 2242.58,771.209 2243.22,771.398C2248.55,772.979 2258.39,784.7 2260.5,787.329C2277.72,808.776 2288.73,825.956 2301.37,849.187C2304.17,854.342 2308.15,858.905 2310.26,864.38C2312.5,870.207 2312.77,876.616 2314.27,882.678C2316.13,890.202 2318.11,897.696 2320.01,905.208C2321.28,910.204 2323.75,914.956 2324.2,920.09C2324.7,925.773 2322.5,931.455 2322.83,937.15C2322.88,937.997 2327.95,940.984 2328.11,941.584C2332.86,959.522 2331.69,980.952 2330.79,999.272C2330.7,1001.03 2327.77,1025.45 2326.84,1028.49C2325.05,1034.39 2320.27,1035.95 2319.54,1042.42C2318.94,1047.74 2322.9,1057.19 2323.08,1062.26C2323.29,1068.35 2322.19,1074.42 2321.94,1080.51C2321.68,1086.75 2323.66,1089.44 2319.69,1093.76C2314.01,1099.94 2296.02,1097.26 2290.34,1092.08C2286.8,1088.85 2284.45,1081.76 2283.02,1077.56C2280.66,1070.64 2276.86,1059.2 2276.64,1051.84C2276.28,1040.07 2279.84,1040.67 2280.6,1029.07C2280.89,1024.55 2277.87,1022.23 2278.61,1017.65C2280.75,1004.34 2292.95,994.155 2294.78,980.99Z" style="fill:rgb(255,192,0);"/>
            </g>
            <g id="glitch_top" transform="matrix(1,0,0,0.805266,0.2189,70.0375)">
                <rect x="2062.15" y="557.02" width="93.717" height="40.682" style="fill:rgb(255,192,0);"/>
            </g>
            <g id="glitch_mid_air" transform="matrix(1,0,0,0.805266,0.2189,70.0375)">
                <rect x="2350.98" y="759.871" width="94.857" height="40.316" style="fill:rgb(255,192,0);"/>
            </g>
            <g id="glitch_right_ring" transform="matrix(1,0,0,0.805266,0.2189,70.0375)">
                <rect x="2465.55" y="1328.66" width="138.737" height="39.931" style="fill:rgb(255,192,0);"/>
            </g>
            <g id="whisker_mid" transform="matrix(1,0,0,0.805266,0.2189,70.0375)">
                <path d="M2276.64,1159.46C2291.48,1154.14 2309.64,1160.12 2323.66,1163.83C2364.02,1174.52 2418.21,1191.02 2433.26,1235.71C2436.07,1244.09 2437.76,1252.8 2440.21,1261.29C2441.39,1265.36 2443.1,1270.11 2442.23,1274.26C2441.81,1276.27 2437.98,1266.49 2436.53,1262.49C2433.87,1255.14 2430.9,1247.86 2427.18,1240.99C2418.97,1225.78 2405.15,1212.86 2391,1203.28C2365.31,1185.89 2332.78,1177.8 2302.97,1171.72C2294.34,1169.96 2285.28,1170.36 2276.81,1167.97C2274.14,1167.21 2273.82,1160.48 2276.64,1159.46Z" style="fill:rgb(255,192,0);"/>
            </g>
            <g id="whisker_upper" transform="matrix(1,0,0,0.805266,0.2189,70.0375)">
                <path d="M2274.85,1112.64C2289.64,1111.27 2304.56,1112.18 2319.4,1112.49C2345.91,1113.02 2385.63,1111.31 2412.41,1121.78C2422.11,1125.57 2431.19,1130.81 2440.31,1135.84C2446.78,1139.41 2453.64,1142.62 2459.13,1147.57C2461.76,1149.93 2452.49,1145.11 2449.2,1143.84C2429.71,1136.32 2430.1,1135.54 2409.73,1131.22C2374.79,1123.83 2339.47,1124.54 2304.01,1124.1C2294.47,1123.98 2284.9,1124.09 2275.39,1123.25C2271.85,1122.93 2270.98,1113 2274.85,1112.64Z" style="fill:rgb(255,192,0);"/>
            </g>
            <g id="glitch_mid_rabbit" transform="matrix(1,0,0,0.805266,1193.22,355.907)">
                <path d="M1060.91,355.103L1061.08,355.102C1061.08,355.102 1066.44,362.239 1068.79,366.024C1072.34,371.733 1079.13,383.621 1082.37,389.356C1084.04,392.313 1089.6,397.41 1089.4,399.517L1089.4,401.143L1072.88,401.143L1072.87,401.144C1068.9,401.201 1064.93,401.219 1060.97,401.217C1056.43,401.215 1051.9,401.187 1047.37,401.144L1047.33,401.143L994.843,401.143L994.843,399.385L999.721,399.385L938.995,374.721L772.816,374.721L772.816,354.779L1060.91,354.779L1060.91,355.103Z" style="fill:rgb(255,192,0);"/>
            </g>
            <g id="main_body" transform="matrix(1,0,0,0.805266,1193.22,355.907)">
                <path d="M1072.63,615.462C1073.44,615.551 1072.95,617.804 1072.85,618.933C1072.83,619.207 1072.83,619.475 1072.82,619.737C1072.18,631.623 1066.8,630.093 1062.98,645.733C1059.43,660.261 1060.31,686.449 1064.36,702.397C1065.39,706.46 1066.14,712.833 1067.88,716.645C1071.31,724.155 1074.8,731.653 1077.74,739.372C1082.9,752.964 1082.81,769.294 1083.08,783.38C1083.28,793.194 1083.59,803.023 1083.11,812.827C1081.82,839.46 1058.37,863.25 1041.13,881.1C1025.68,897.092 1007.03,911.25 983.327,909.172C977.715,908.68 972.251,906.857 966.988,904.848C942.417,895.468 939.852,861.192 951.556,840.893C955.885,833.385 961.279,826.517 966.742,819.79C968.897,817.137 971.512,814.833 974.313,812.874C978.901,809.665 987.204,813.245 991.8,812.874C1001.14,812.121 1013.51,800.979 1019.08,796.19C1025.87,790.348 1036.22,776.928 1027.38,768.093C1023.37,764.082 1014.36,775.379 1013.21,776.388C998.383,789.466 990.854,796.616 970.83,794.235C952.23,792.024 937.706,780.431 926.188,766.353C921.401,760.502 918.004,750.61 908.779,750.868C898.489,751.155 902.666,764.011 905.227,769.221C911.139,781.245 923.787,789.676 933.854,797.804C937.532,800.773 945.806,805.264 943.742,811.76C935.947,836.289 923.246,857.832 908.262,878.583C896.237,895.236 883.096,912.426 866.429,924.818C847.344,939.007 820.397,947.711 797.119,940.016C781.997,935.017 768.577,924.765 756.776,914.337C746.56,905.309 736.794,895.78 726.56,886.772C721.938,882.703 706.753,876.656 707.958,888.591C709.228,901.163 719.668,910.447 727.786,918.948C743.167,935.057 747.825,940.295 766.547,952.542C778.362,960.272 795.034,961.916 808.402,962.688C830.758,963.978 846.048,961.171 864.597,948.938C881.423,937.841 896.415,923.873 909.676,908.754C913.804,904.047 916.358,895.361 922.614,895.142C927.785,894.961 927.877,902.18 930.101,904.594C938.952,914.205 945.89,918.427 957.978,922.516C971.983,927.253 978.177,927.804 993.255,928.184C999.362,928.338 1005.47,927.845 1011.58,927.779C1012.53,927.768 1018.57,927.37 1020.46,928.735C1040.13,942.984 1022.52,977.287 1022.93,1001.58C1023.35,1027.09 1022.87,1046.02 1025.41,1072.34C1028.31,1102.37 1067.67,1119.88 1058.43,1151.15C1057.48,1154.36 1056.63,1157.68 1054.97,1160.59C1052.99,1164.08 1048.57,1166.65 1045.01,1168.05C1030.99,1173.54 1022.45,1176.39 1007.59,1178.68C985.492,1182.08 959.331,1181.05 940.187,1168C932.38,1162.67 926.889,1153.65 920.424,1147.02C909.171,1135.48 895.103,1128.6 881.429,1120.34C872.582,1115 869.371,1113.62 862.911,1105.53C860.504,1102.52 858.998,1095.26 853.872,1094.73C848.987,1094.22 850.724,1106.55 850.774,1107.02C851.726,1116.08 852.879,1124.06 860.736,1129.55C877.198,1141.04 906.886,1147.46 914.383,1168.56C915.162,1170.75 914.155,1175.74 913.1,1177.68C906.49,1189.86 895.597,1197.51 883.167,1203.39C863.864,1212.51 842.03,1209.3 821.573,1210.8C810.93,1211.58 800.422,1213.74 789.785,1214.61C760.121,1217.01 729.001,1218.84 699.182,1215.72C682.025,1213.92 666.443,1206.05 650.472,1200.25C638.143,1195.78 625.584,1191.94 613.308,1187.32C606.406,1184.72 576.841,1180.26 572.153,1165.17C568.735,1154.18 577.833,1141.33 580.611,1132.03C585.855,1114.48 590.489,1096.74 594.634,1078.9C596.83,1069.44 596.219,1059.11 597.026,1049.55L681.782,1049.55L681.782,1006.5L600.908,1006.5C605.351,945.675 603.837,884.244 592.389,824.216C584.742,784.124 569.511,747.171 559.917,707.734C549.877,666.459 549.136,621.382 554.685,579.405C556.373,566.644 560.459,559.42 561.996,546.626C562.669,541.029 552.831,539.429 549.85,542.719C541.046,552.435 538.526,568.043 536.341,580.156C531.059,609.437 531.33,638.887 533.984,668.51C538.629,720.365 551.502,770.59 560.025,821.8C566.488,860.626 568.869,897.247 569.912,936.332C570.536,959.71 572.263,983.223 568.923,1006.5L420.22,1006.5L420.22,1049.55L560.136,1049.55C554.7,1070.79 544.993,1101.04 537.658,1121.75C529.632,1144.41 522.865,1165.78 511.207,1186.49C502.263,1202.37 489.991,1225.8 472.703,1234.81C459.914,1241.48 444.282,1241.17 430.473,1242.54C419.546,1243.62 407.853,1246.38 397.052,1242.52C383.311,1237.61 372.054,1226.91 361.572,1217.35C345.62,1202.79 325.455,1186.45 316.117,1165.93C309.207,1150.74 316.046,1134.78 315.089,1119.14C313.672,1095.99 308.547,1096.66 308.747,1073.58C308.77,1070.94 308.774,1063.27 308.734,1062.86C307.81,1053.55 308.225,1044.14 308.336,1034.79C308.557,1016.04 313.341,1017.09 316.052,998.764C318.08,985.059 316.02,971.045 316.671,957.206C318.218,924.374 323.053,891.757 324.781,858.934C326.123,833.446 324.693,833.588 326.523,808.161L513.762,808.161L513.762,761.583L329.602,761.583C329.838,756.955 327.259,750.658 328.456,745.939C329.224,742.908 337.196,728.248 338.138,725.308C340.425,718.168 342.215,704.206 342.083,696.789C342.055,695.224 333.789,699.158 333.964,698.264C337.938,677.998 342.53,679.354 345.141,658.968C346.834,645.751 345.3,632.306 346.081,619.004C347.564,593.783 357.271,572.176 363.931,547.929C367.313,535.612 367.258,518.914 375.094,507.796C381.106,499.266 388.279,491.61 394.563,483.279C395.902,481.504 390.923,480.602 389.627,478.797C388.361,477.034 386.514,470.383 387.572,468.156C390.191,462.648 394.86,458.3 397.595,452.849C398.756,450.534 399.645,439.271 401.185,437.016C403.113,434.193 407.315,433.401 409.084,430.476C409.48,429.822 411.546,413.386 411.814,412.726C412.98,409.859 418.657,406.914 420.127,404.345C421.5,401.946 422.256,393.741 423.945,391.425C453.994,350.243 493.365,318.501 536.06,291.289C559.125,276.589 584.619,259.674 611.523,252.047C631.49,246.386 652.379,251.95 672.687,249.958C680.153,249.226 684.13,243.037 691.205,241.439C709.58,237.289 727.186,239.575 745.65,242.867C758.022,245.074 762.209,247.376 773.342,253.078C776.116,254.498 779.944,257.71 783.308,257.968C783.893,258.013 783.004,256.79 782.615,256.35C781.683,255.294 780.469,254.525 779.43,253.574C777.095,251.436 774.496,249.538 772.495,247.085C771.451,245.806 770.984,241.813 772.604,242.133C783.685,244.316 792.818,254.707 801.411,260.644C810.36,266.828 818,265.317 828.346,268.389C833.66,269.967 838.37,273.278 843.72,274.732C844.807,275.027 842.521,272.796 841.706,272.02C836.436,267.005 829.051,266.178 823.898,261.298C823.501,260.922 824.81,260.599 825.353,260.536C849.736,257.739 869.483,280.654 887.83,292.329C896.414,297.792 919.215,308.092 927.602,313.941L774.842,313.941L774.842,354.943L974.994,354.943C996.899,379.099 1006.34,412.158 1018.36,441.427C1027.61,463.951 1028.74,470.486 1038.07,492.973C1041.25,500.634 1047.12,507.183 1050.86,514.609C1050.73,514.827 1050.57,515.214 1050.25,515.159C1046.52,514.513 1044.7,513.606 1041.84,514.974C1021.72,524.59 1016.56,625.065 1060.32,627C1068.46,627.36 1068.52,617.262 1071.69,615.629C1072.03,615.452 1072.2,615.414 1072.63,615.462ZM787.502,617.778C783.552,624.791 778.183,631.456 771.533,636.121C747.729,652.818 722.504,635.456 711.942,612.638C699.557,585.879 700.801,550.283 717.702,525.655C731.267,505.888 755.925,498.301 775.415,515.415C783.179,522.233 788.831,531.739 792.422,541.292C792.146,541.446 794.531,550.316 792.344,550.239C785.751,550.007 783.777,545.852 776.735,546.468C769.63,547.091 763.757,556.796 761.214,562.26C755.431,574.685 755.551,595.375 765.759,605.754C769.511,609.57 770.269,609.934 775.116,609.62C779.949,609.307 787.166,606.5 790.763,611.245C790.036,612.897 787.502,617.778 787.502,617.778Z" style="fill:rgb(255,192,0);"/>
            </g>
            <g id="pupil_front" transform="matrix(1.0801,0.282438,-0.279294,0.692595,1280.82,128.347)">
                <path d="M1049.36,592.49C1041.95,586.67 1034.83,556.54 1036.88,546.15C1037.41,543.427 1040.02,541.532 1041.9,541.995C1048.46,543.609 1055.55,562.155 1059.12,576.622C1062.43,590.089 1060.16,600.984 1049.36,592.49Z" style="fill:rgb(255,192,0);"/>
            </g>
        </g>
    </g>
</svg>
