<?xml version="1.0" encoding="UTF-8" standalone="no"?>
<!DOCTYPE svg PUBLIC "-//W3C//DTD SVG 1.1//EN" "http://www.w3.org/Graphics/SVG/1.1/DTD/svg11.dtd">
<svg width="100%" height="100%" viewBox="0 0 1407 1409" version="1.1" xmlns="http://www.w3.org/2000/svg" xmlns:xlink="http://www.w3.org/1999/xlink" xml:space="preserve" xmlns:serif="http://www.serif.com/" style="fill-rule:evenodd;clip-rule:evenodd;stroke-linecap:round;stroke-linejoin:round;stroke-miterlimit:1.5;">
    <g transform="matrix(1,0,0,1,-76.6696,-54.8402)">
        <g transform="matrix(-0.993191,-0.0155144,0.0155439,-0.99508,779.788,759.418)">
            <circle cx="0" cy="0" r="687.995" style="fill:none;stroke:rgb(109,213,195);stroke-width:39.81px;"/>
        </g>
        <g id="bunny" transform="matrix(1.34833,0,0,1.6744,-1817.96,-990.215)">
            <g id="whiisker_lower" transform="matrix(0.863984,0,0,0.676991,303.315,335.81)">
                <path d="M2270.47,1188.59C2274.44,1188.5 2285.13,1195.63 2287.34,1197.28C2297.9,1205.15 2308.31,1213.24 2318.52,1221.56C2342.14,1240.8 2361.28,1269.98 2371.02,1298.63C2372.64,1303.4 2380.8,1333.57 2381.21,1335.25C2382.32,1339.83 2386.45,1353.14 2383.97,1349.13C2378.98,1341.03 2381.19,1342.76 2378.75,1338.96C2378.49,1338.55 2378.39,1337.94 2378.02,1337.14C2374.94,1330.43 2372.09,1323.62 2369.16,1316.84C2361.37,1298.84 2354.25,1284.41 2341.67,1269.09C2320.79,1243.66 2298.79,1221.4 2271.9,1202.53C2269.84,1201.08 2267.2,1199.99 2266.03,1197.75C2264.63,1195.09 2266.71,1188.67 2270.47,1188.59Z" style="fill:rgb(109,213,195);"/>
            </g>
            <g id="foot_front" transform="matrix(0.863984,0,0,0.676991,303.315,335.81)">
                <path d="M2238.97,1267.5C2243.71,1259.95 2249.39,1253.03 2254.91,1246.04C2260.36,1239.12 2265.77,1232.13 2271.86,1225.77C2273.57,1223.99 2277.62,1224.55 2279.36,1225.61C2284.82,1228.95 2288.58,1233.27 2293.74,1237.05C2296.57,1239.12 2302.01,1244.54 2303.09,1248.27C2304.39,1252.73 2303.7,1260.9 2304.12,1265.14C2304.85,1272.39 2305.83,1279.67 2307.61,1286.74C2311.47,1302.06 2316.78,1316.99 2321.03,1332.21C2324.87,1345.92 2328.23,1360.69 2333.8,1373.85C2335.12,1376.97 2338.24,1379.13 2339.46,1382.3C2339.58,1382.61 2336.65,1387.21 2336.88,1387.64C2338.76,1391.23 2342.23,1393.76 2344.49,1397.13C2348.68,1403.38 2268.26,1502.15 2267.37,1499.14C2264.84,1490.6 2264.5,1481.56 2262.82,1472.81C2262.26,1469.89 2261.27,1460.16 2260.27,1457.58C2257.68,1450.88 2249.54,1445.83 2246.41,1439.24C2245.16,1436.6 2245.56,1433.39 2244.37,1430.72C2241.62,1424.53 2238.43,1426.08 2237.89,1419.36C2236.92,1407.34 2237.36,1395.25 2237.51,1383.19C2237.93,1347.87 2239.24,1312.56 2239.61,1277.24C2239.64,1274.88 2237.39,1270.02 2238.97,1267.5Z" style="fill:rgb(109,213,195);"/>
            </g>
            <g id="body" transform="matrix(0.863984,0,0,0.676991,303.315,335.81)">
                <path d="M1573.26,793.46C1569.77,805.872 1566.77,804.494 1562.73,816.843C1553.41,845.304 1556.65,846.022 1547.95,874.759C1547.36,876.699 1533.61,910.313 1533,912.243C1523.31,942.892 1521.83,975.639 1514.53,1006.78C1511.53,1019.57 1506.29,1031.74 1503.02,1044.46C1498.8,1060.9 1498.82,1074.27 1495.45,1090.85C1488.99,1122.73 1478.56,1154.93 1476.3,1187.66C1475.18,1203.8 1475.67,1220.02 1474.48,1236.15C1473.09,1255.14 1467.7,1273.77 1468.63,1292.95C1469.35,1307.62 1471.1,1322.21 1471.93,1336.87C1472.44,1345.75 1471.82,1354.69 1472.65,1363.56C1473.03,1367.69 1474.57,1371.64 1475.54,1375.68C1475.96,1377.44 1477.26,1380.12 1475.64,1381.92C1473.55,1384.24 1467.81,1377.99 1467.47,1377.69C1464.18,1374.91 1460.88,1372.15 1457.61,1369.35C1451.73,1364.31 1446.42,1358.54 1440.03,1354.17C1438.04,1352.82 1435.18,1353.55 1433,1352.55C1420.47,1346.83 1408.42,1340.1 1396.03,1334.07C1394.94,1333.54 1390.47,1332.06 1389.24,1333.13C1383.77,1337.9 1397.19,1342.29 1398.16,1342.91C1417.14,1355.09 1421.31,1359.55 1438.06,1378.01C1452.57,1394.01 1461.86,1413.69 1469.54,1433.65C1472.58,1441.53 1474.6,1451.04 1469.83,1458.76C1467.63,1462.32 1460.85,1470.25 1456.17,1473.65C1455.61,1474.06 1454.47,1473.83 1454.11,1473.23C1439.2,1448.11 1410.15,1435.21 1395.89,1409.71C1372.34,1367.59 1343.54,1326.2 1329.94,1279.78C1305.72,1197.08 1297.55,1138.28 1295.85,1104.44C1292.7,1041.55 1297.32,1030.17 1303.65,1012C1306.63,1003.42 1320.08,969.707 1369.06,909.223C1378.67,897.366 1402.88,863.055 1418.42,860.127C1419.61,859.903 1420.82,860.372 1420.96,861.789C1421.08,863.017 1419.48,865.957 1420.61,865.475C1427.44,862.577 1428.19,853.851 1434.09,849.913C1446.65,841.526 1456.09,837.369 1469.36,830.237C1488.88,819.742 1488.49,818.918 1509.81,812.997C1511.62,812.494 1518.96,813.293 1519.56,809.119C1519.72,808.003 1517.38,801.566 1519.79,801.217C1520.85,801.062 1531.99,802.474 1533.07,802.178C1541.05,799.989 1548.35,795.212 1555.91,791.912C1557.7,791.128 1576.48,782.015 1573.26,793.46Z" style="fill:rgb(109,213,195);"/>
            </g>
            <g id="ear_front" transform="matrix(0.863984,0,0,0.676991,303.315,335.81)">
                <path d="M2294.78,980.99C2297.61,960.642 2292.35,938.293 2287.78,918.813C2285.73,910.034 2283.88,901.152 2280.77,892.689C2278.23,885.789 2271.01,881.178 2268.79,874.171C2268.11,872.007 2273.74,871.236 2273.25,869.02C2272.45,865.401 2262.51,847.695 2261.24,844.976C2253.78,829.023 2256.49,828.106 2249.39,812.062C2243.72,799.24 2229.33,788.824 2231.38,773.079C2231.89,769.167 2242.58,771.209 2243.22,771.398C2248.55,772.979 2258.39,784.7 2260.5,787.329C2277.72,808.776 2288.73,825.956 2301.37,849.187C2304.17,854.342 2308.15,858.905 2310.26,864.38C2312.5,870.207 2312.77,876.616 2314.27,882.678C2316.13,890.202 2318.11,897.696 2320.01,905.208C2321.28,910.204 2323.75,914.956 2324.2,920.09C2324.7,925.773 2322.5,931.455 2322.83,937.15C2322.88,937.997 2327.95,940.984 2328.11,941.584C2332.86,959.522 2331.69,980.952 2330.79,999.272C2330.7,1001.03 2327.77,1025.45 2326.84,1028.49C2325.05,1034.39 2320.27,1035.95 2319.54,1042.42C2318.94,1047.74 2322.9,1057.19 2323.08,1062.26C2323.29,1068.35 2322.19,1074.42 2321.94,1080.51C2321.68,1086.75 2323.66,1089.44 2319.69,1093.76C2314.01,1099.94 2296.02,1097.26 2290.34,1092.08C2286.8,1088.85 2284.45,1081.76 2283.02,1077.56C2280.66,1070.64 2276.86,1059.2 2276.64,1051.84C2276.28,1040.07 2279.84,1040.67 2280.6,1029.07C2280.89,1024.55 2277.87,1022.23 2278.61,1017.65C2280.75,1004.34 2292.95,994.155 2294.78,980.99Z" style="fill:rgb(109,213,195);"/>
            </g>
            <g id="whisker_mid" transform="matrix(0.813275,0,0,0.637257,418.662,381.796)">
                <path d="M2276.64,1159.46C2291.48,1154.14 2309.64,1160.12 2323.66,1163.83C2364.02,1174.52 2418.21,1191.02 2433.26,1235.71C2436.07,1244.09 2437.76,1252.8 2440.21,1261.29C2441.39,1265.36 2443.1,1270.11 2442.23,1274.26C2441.81,1276.27 2437.98,1266.49 2436.53,1262.49C2433.87,1255.14 2430.9,1247.86 2427.18,1240.99C2418.97,1225.78 2405.15,1212.86 2391,1203.28C2365.31,1185.89 2332.78,1177.8 2302.97,1171.72C2294.34,1169.96 2285.28,1170.36 2276.81,1167.97C2274.14,1167.21 2273.82,1160.48 2276.64,1159.46Z" style="fill:rgb(109,213,195);"/>
            </g>
            <g id="whisker_upper" transform="matrix(0.863984,0,0,0.676991,303.315,335.81)">
                <path d="M2274.85,1112.64C2289.64,1111.27 2304.56,1112.18 2319.4,1112.49C2345.91,1113.02 2385.63,1111.31 2412.41,1121.78C2422.11,1125.57 2431.19,1130.81 2440.31,1135.84C2446.78,1139.41 2453.64,1142.62 2459.13,1147.57C2461.76,1149.93 2452.49,1145.11 2449.2,1143.84C2429.71,1136.32 2430.1,1135.54 2409.73,1131.22C2374.79,1123.83 2339.47,1124.54 2304.01,1124.1C2294.47,1123.98 2284.9,1124.09 2275.39,1123.25C2271.85,1122.93 2270.98,1113 2274.85,1112.64Z" style="fill:rgb(109,213,195);"/>
            </g>
            <g id="main_body">
            </g>
            <g id="pupil_front" transform="matrix(0.933189,0.237447,-0.241306,0.582268,1409.73,384.831)">
                <path d="M1049.36,592.49C1041.95,586.67 1034.83,556.54 1036.88,546.15C1037.41,543.427 1040.02,541.532 1041.9,541.995C1048.46,543.609 1055.55,562.155 1059.12,576.622C1062.43,590.089 1060.16,600.984 1049.36,592.49Z" style="fill:rgb(109,213,195);"/>
            </g>
        </g>
        <g transform="matrix(1,0,0,1,76.6696,54.8402)">
            <path d="M1153.66,620.294C1154.6,620.395 1154.03,622.949 1153.91,624.228C1153.89,624.539 1153.89,624.843 1153.88,625.14C1153.13,638.613 1146.87,636.879 1142.42,654.608C1138.28,671.076 1139.31,700.761 1144.02,718.839C1145.22,723.445 1146.1,730.669 1148.12,734.99C1152.12,743.503 1156.19,752.002 1159.61,760.752C1165.62,776.16 1165.52,794.671 1165.83,810.638C1166.07,821.762 1166.43,832.904 1165.87,844.017C1164.36,874.207 1137.05,901.175 1116.96,921.408C1098.96,939.536 1077.24,955.585 1049.63,953.23C1043.09,952.672 1036.72,950.605 1030.59,948.328C1001.97,937.695 998.98,898.842 1012.61,875.832C1017.66,867.321 1023.94,859.536 1030.31,851.91C1032.82,848.903 1035.86,846.291 1039.12,844.071C1044.47,840.433 1054.14,844.491 1059.5,844.071C1070.38,843.217 1084.79,830.587 1091.28,825.159C1099.19,818.536 1111.24,803.324 1100.94,793.309C1096.27,788.762 1085.78,801.568 1084.44,802.712C1067.16,817.537 1058.39,825.641 1035.07,822.942C1013.4,820.436 996.48,807.295 983.062,791.337C977.486,784.704 973.529,773.491 962.782,773.784C950.795,774.109 955.661,788.682 958.644,794.588C965.531,808.218 980.265,817.775 991.993,826.988C996.277,830.354 1005.92,835.444 1003.51,842.808C994.431,870.613 979.635,895.033 962.18,918.555C948.171,937.432 932.863,956.918 913.447,970.965C891.214,987.049 859.823,996.916 832.705,988.193C815.089,982.526 799.456,970.905 785.708,959.084C773.807,948.851 762.43,938.049 750.508,927.838C745.124,923.226 727.435,916.371 728.838,929.9C730.318,944.151 742.48,954.675 751.937,964.311C769.855,982.572 775.281,988.509 797.091,1002.39C810.854,1011.15 830.276,1013.02 845.849,1013.89C871.892,1015.36 889.704,1012.17 911.313,998.306C930.914,985.727 948.379,969.894 963.827,952.756C968.636,947.42 971.611,937.574 978.899,937.326C984.923,937.121 985.03,945.304 987.621,948.04C997.932,958.935 1006.01,963.721 1020.1,968.356C1036.41,973.725 1043.63,974.35 1061.19,974.781C1068.31,974.955 1075.42,974.396 1082.54,974.322C1083.64,974.309 1090.68,973.858 1092.88,975.405C1115.8,991.557 1095.28,1030.44 1095.76,1057.98C1096.25,1086.9 1095.69,1108.35 1098.65,1138.19C1102.03,1172.23 1147.88,1192.08 1137.12,1227.52C1136.01,1231.16 1135.02,1234.93 1133.09,1238.23C1130.78,1242.18 1125.63,1245.09 1121.48,1246.68C1105.15,1252.9 1095.2,1256.13 1077.89,1258.73C1052.15,1262.59 1021.67,1261.42 999.37,1246.62C990.276,1240.58 983.879,1230.36 976.348,1222.84C963.239,1209.76 946.85,1201.96 930.921,1192.6C920.615,1186.55 916.874,1184.98 909.349,1175.81C906.545,1172.4 904.79,1164.17 898.819,1163.57C893.128,1162.99 895.152,1176.97 895.21,1177.5C896.319,1187.77 897.662,1196.82 906.815,1203.04C925.992,1216.06 960.577,1223.34 969.31,1247.26C970.218,1249.74 969.045,1255.4 967.816,1257.6C960.115,1271.4 947.426,1280.08 932.946,1286.74C910.459,1297.08 885.024,1293.44 861.193,1295.14C848.794,1296.03 836.553,1298.47 824.162,1299.46C789.605,1302.18 753.352,1304.25 718.615,1300.72C698.628,1298.68 680.476,1289.76 661.871,1283.18C647.508,1278.12 632.878,1273.76 618.577,1268.53C610.537,1265.58 576.095,1260.52 570.634,1243.42C566.652,1230.96 577.251,1216.39 580.487,1205.85C586.596,1185.96 591.994,1165.85 596.823,1145.62C599.381,1134.9 598.669,1123.19 599.61,1112.36L604.132,1063.56C609.308,994.608 607.544,924.972 594.208,856.927C585.3,811.481 567.556,769.593 556.38,724.889C544.684,678.102 543.821,627.005 550.285,579.421C552.251,564.956 557.011,556.767 558.802,542.265C559.586,535.92 548.125,534.107 544.653,537.836C534.396,548.85 531.461,566.542 528.915,580.273C522.762,613.464 523.078,646.847 526.17,680.427C531.581,739.207 546.577,796.14 556.506,854.189C564.035,898.2 566.808,939.712 568.024,984.017C568.75,1010.52 570.762,1037.17 566.871,1063.56L556.635,1112.36C550.303,1136.43 538.994,1170.72 530.45,1194.2C521.1,1219.88 513.217,1244.11 499.636,1267.58C489.217,1285.59 474.921,1312.14 454.781,1322.36C439.883,1329.92 421.673,1329.57 405.586,1331.12C392.857,1332.34 388.191,1323.69 375.609,1319.31C359.602,1313.75 283.247,1267.54 272.369,1244.28C264.319,1227.06 272.286,1208.97 271.171,1191.24C269.52,1165 263.55,1165.76 263.783,1139.6C263.81,1136.6 263.814,1127.91 263.768,1127.44C262.691,1116.89 263.175,1106.22 263.304,1095.62C263.562,1074.37 269.135,1075.56 272.293,1054.79C274.655,1039.25 272.256,1023.37 273.014,1007.68C274.816,970.462 280.449,933.489 282.462,896.282C284.025,867.39 282.359,867.551 284.491,838.728L288.078,785.93C288.353,780.684 285.348,773.546 286.743,768.196C287.637,764.761 296.924,748.143 298.022,744.81C300.686,736.717 302.771,720.89 302.617,712.482C302.585,710.708 292.955,715.168 293.159,714.154C297.789,691.182 303.138,692.719 306.18,669.61C308.152,654.628 306.365,639.387 307.275,624.309C309.002,595.72 320.31,571.227 328.069,543.742C332.009,529.78 331.945,510.852 341.073,498.249C348.077,488.58 356.433,479.901 363.753,470.458C365.313,468.446 359.513,467.423 358.003,465.377C356.528,463.379 354.377,455.839 355.609,453.315C358.66,447.071 364.099,442.143 367.285,435.964C368.638,433.339 369.673,420.572 371.467,418.016C373.713,414.816 378.608,413.918 380.669,410.603C381.13,409.861 383.537,391.23 383.849,390.482C385.208,387.232 391.821,383.894 393.534,380.982C395.133,378.262 396.014,368.962 397.981,366.336C432.986,319.654 478.851,283.673 528.588,252.827C555.457,236.164 585.156,216.99 616.498,208.344C639.758,201.927 664.092,208.234 687.75,205.976C696.447,205.146 701.08,198.131 709.322,196.319C730.728,191.615 751.238,194.206 772.747,197.938C787.16,200.44 792.037,203.049 805.007,209.513C808.238,211.122 812.697,214.763 816.616,215.056C817.298,215.107 816.262,213.721 815.809,213.222C814.723,212.025 813.309,211.153 812.099,210.075C809.379,207.651 806.351,205.5 804.02,202.719C802.804,201.27 802.26,196.743 804.147,197.106C817.055,199.581 827.695,211.359 837.705,218.089C848.13,225.099 857.03,223.386 869.083,226.869C875.273,228.657 880.76,232.411 886.992,234.059C888.259,234.393 885.596,231.864 884.646,230.985C878.507,225.3 869.904,224.362 863.901,218.831C863.439,218.404 864.963,218.038 865.596,217.967C894.001,214.796 917.005,240.772 938.378,254.006C948.378,260.198 974.939,271.874 984.71,278.504L1039.92,324.982C1065.44,352.364 1076.43,389.838 1090.44,423.016C1101.21,448.548 1102.53,455.956 1113.4,481.446C1117.1,490.13 1123.94,497.554 1128.3,505.972C1128.15,506.219 1127.96,506.658 1127.59,506.595C1123.24,505.863 1121.12,504.835 1117.79,506.386C1094.35,517.286 1088.34,631.179 1139.32,633.373C1148.8,633.781 1148.87,622.334 1152.56,620.483C1152.96,620.283 1153.16,620.24 1153.66,620.294ZM403.136,1078.85L403.136,1058.79L346.378,1058.79L346.378,1078.85L328.293,1078.85L328.293,1178.49L514.048,1178.49L514.048,1078.85L496.651,1078.85L496.651,1059.95L441.735,1059.95L441.735,1078.85L403.136,1078.85ZM441.735,938.845L403.136,938.845L403.136,918.793L346.378,918.793L346.378,938.845L328.293,938.845L328.293,1038.49L514.048,1038.49L514.048,938.845L496.651,938.845L496.651,919.951L441.735,919.951L441.735,938.845ZM403.136,798.845L403.136,778.793L346.378,778.793L346.378,798.845L328.293,798.845L328.293,898.49L514.048,898.49L514.048,798.845L496.651,798.845L496.651,779.951L441.735,779.951L441.735,798.845L403.136,798.845ZM821.502,622.919C816.901,630.869 810.646,638.424 802.899,643.712C775.169,662.639 745.783,642.958 733.479,617.093C719.052,586.76 720.501,546.41 740.189,518.493C755.992,496.086 784.717,487.486 807.421,506.885C816.466,514.614 823.05,525.39 827.233,536.218C826.912,536.393 829.69,546.448 827.143,546.36C819.462,546.097 817.163,541.387 808.959,542.086C800.682,542.792 793.841,553.793 790.878,559.987C784.141,574.071 784.281,597.524 796.173,609.289C800.544,613.615 801.427,614.028 807.073,613.672C812.703,613.317 821.111,610.135 825.301,615.514C824.454,617.386 821.502,622.919 821.502,622.919Z" style="fill:rgb(109,213,195);"/>
        </g>
    </g>
</svg>
